<?xml version="1.0" encoding="UTF-8" standalone="no"?>
<svg
   viewBox="0 0 714.97137 1039.0909"
   height="1039.0909"
   width="714.97137"
   xml:space="preserve"
   id="svg2"
   version="1.1"
   xmlns="http://www.w3.org/2000/svg"
   xmlns:svg="http://www.w3.org/2000/svg"
   xmlns:rdf="http://www.w3.org/1999/02/22-rdf-syntax-ns#"
   xmlns:cc="http://creativecommons.org/ns#"
   xmlns:dc="http://purl.org/dc/elements/1.1/"><metadata
     id="metadata8"><rdf:RDF><cc:Work
         rdf:about=""><dc:format>image/svg+xml</dc:format><dc:type
           rdf:resource="http://purl.org/dc/dcmitype/StillImage" /></cc:Work></rdf:RDF></metadata><defs
     id="defs6"><clipPath
       id="clipPath60"
       clipPathUnits="userSpaceOnUse"><path
         id="path58"
         d="m 55,672.69 h 587.52 v 158.3 H 55 Z" /></clipPath><clipPath
       id="clipPath110"
       clipPathUnits="userSpaceOnUse"><path
         id="path108"
         d="M 55,461.6 H 642.52 V 619.9 H 55 Z" /></clipPath><clipPath
       id="clipPath164"
       clipPathUnits="userSpaceOnUse"><path
         id="path162"
         d="m 55,250.51 h 587.52 v 158.3 H 55 Z" /></clipPath><clipPath
       id="clipPath216"
       clipPathUnits="userSpaceOnUse"><path
         id="path214"
         d="m 55,39.41 h 587.52 v 158.3 H 55 Z" /></clipPath></defs><g
     transform="matrix(1.3333333,0,0,-1.3333333,-107.51337,1099.8179)"
     id="g10"><g
       id="g54"><g
         clip-path="url(#clipPath60)"
         id="g56"><path
           id="path98"
           style="fill:none;stroke:#4078c0;stroke-width:2.13;stroke-linecap:butt;stroke-linejoin:round;stroke-miterlimit:10;stroke-dasharray:none;stroke-opacity:1"
           d="m 81.7,716.35 0.54,-33.4 0.53,15.23 0.54,-18.29 0.53,20.4 0.54,-11.06 0.53,18.99 0.53,-0.47 0.54,4.19 0.53,-9.25 0.54,1.37 0.53,3.61 0.54,8.12 0.53,-14.89 0.54,8.04 0.53,2.6 0.54,26.59 0.53,-18.52 0.54,9.01 0.53,-2.03 0.54,11.64 0.53,12.85 0.53,-17.8 0.54,15.87 0.53,0.38 0.54,0.01 0.53,-7.89 0.54,9.77 0.53,0.64 0.54,-20.99 0.53,19.94 0.54,-15.24 0.53,-2.52 0.54,14.78 0.53,5.01 0.53,-0.91 0.54,6.59 0.53,-11.87 0.54,14.82 0.53,-8.16 0.54,0.51 0.53,-14.62 0.54,12.37 0.53,4.78 0.54,-0.96 0.53,9.65 0.54,3.79 0.53,4.7 0.54,12.48 0.53,-4.43 0.53,-12.47 0.54,1.82 0.53,18.41 0.54,1.62 0.53,1.54 0.54,-20.31 0.53,-4.72 0.54,10.27 0.53,3.57 0.54,11.67 0.53,-5.74 0.54,-6.32 0.53,13.83 0.54,-0.58 0.53,-17.17 0.53,24.45 0.54,-18.18 0.53,13.57 0.54,3.25 0.53,-7.7 0.54,15.46 0.53,-8.97 0.54,22.6 0.53,-6.35 0.54,-9.53 0.53,-13.77 0.54,23.05 0.53,-14.08 0.53,15.95 0.54,3.22 0.53,-10.63 0.54,4.32 0.53,9.94 0.54,-7.4 0.53,-0.47 0.54,2.62 0.53,0.21 0.54,-10.96 0.53,-4.1 0.54,-6.12 0.53,15.13 0.54,6.67 0.53,-6.18 0.53,8.16 0.54,-6.39 0.53,-4.49 0.54,4.62 0.53,6.64 0.54,-6.24 0.53,1.04 0.54,-7.42 0.53,4.6 0.54,8.09 0.53,-12.05 0.54,6.62 0.53,-12.57 0.53,-6.74 0.54,19.63 0.53,-7.67 0.54,-1.95 0.53,-14.77 0.54,17.31 0.53,6.63 0.54,-9.08 0.53,-6.9 0.54,10.6 0.53,-1.63 0.54,1.66 0.53,3.03 0.54,-0.89 0.53,4.34 0.53,-7.16 0.54,-4.33 0.53,-2.92 0.54,7.68 0.53,-0.58 0.54,-1.51 0.53,-22.49 0.54,6.33 0.53,3.35 0.54,-4.16 0.53,-0.11 0.54,-2.38 0.53,2.23 0.54,-2.84 0.53,8.05 0.53,-1.75 0.54,-2.58 0.53,-2.64 0.54,12.32 0.53,-9.81 0.54,-8.18 0.53,-1.56 0.54,10.78 0.53,-1.36 0.54,5.75 0.53,-2.37 0.54,2.64 0.53,-2.38 0.53,-2.58 0.54,8.56 0.53,-4 0.54,-9.96 0.53,2.09 0.54,-8.21 0.53,9 0.54,2.23 0.53,1.18 0.54,-5.92 0.53,6.44 0.54,-8.8 0.53,9.33 0.54,-10.37 0.53,10.33 0.53,-5.03 0.54,-2.96 0.53,0.58 0.54,1.43 0.53,2.08 0.54,1.12 0.53,-3.35 0.54,-7 0.53,1.29 0.54,-1.1 0.53,11.48 0.54,-0.43 0.53,-8.64 0.53,0.21 0.54,4.26 0.53,-2.45 0.54,1.49 0.53,-0.02 0.54,-2.46 0.53,3.52 0.54,-4.53 0.53,1.53 0.54,0.85 0.53,2.94 0.54,-3.16 0.53,-1.83 0.54,-0.43 0.53,2.72 0.53,0.38 0.54,-2.19 0.53,-0.15 0.54,-0.55 0.53,-4.81 0.54,-5.37 0.53,2.85 0.54,-2.41 0.53,-8 0.54,7.78 0.53,-0.16 0.54,-0.01 0.53,0.98 0.54,7.79 0.53,-1.02 0.53,1.46 0.54,4.48 0.53,-2.36 0.54,-5.42 0.53,-1.18 0.54,3.22 0.53,-1.85 0.54,-2.12 0.53,0.79 0.54,1.14 0.53,-1.59 0.54,3.34 0.53,-2.48 0.53,3.88 0.54,-4.62 0.53,2.83 0.54,-4.08 0.53,-3.84 0.54,7.62 0.53,-4.71 0.54,2.35 0.53,1.98 0.54,-1.82 0.53,1.56 0.54,-1.42 0.53,1.9 0.54,-1.12 0.53,0.75 0.53,-2.31 0.54,-2.25 0.53,3.98 0.54,0.59 0.53,2.95 0.54,-5.39 0.53,0.95 0.54,-2.61 0.53,2.65 0.54,-3.69 0.53,0.29 0.54,4.57 0.53,-1.18 0.53,1.3 0.54,-1.27 0.53,1.11 0.54,-0.58 0.53,0.57 0.54,-1.68 0.53,-1.88 0.54,0.69 0.53,2.34 0.54,0.64 0.53,-0.76 0.54,-3.98 0.53,2.53 0.54,1.33 0.53,-4.76 0.53,2.34 0.54,1.45 0.53,1.35 0.54,-3.04 0.53,-2.04 0.54,3.84 0.53,-2.29 0.54,2.89 0.53,0.11 0.54,1.21 0.53,-0.26 0.54,0.15 0.53,-1.87 0.53,0.9 0.54,-1.45 0.53,-0.05 0.54,0.04 0.53,0.35 0.54,-1.16 0.53,0.69 0.54,-2.15 0.53,-2.32 0.54,2.05 0.53,-3.89 0.54,3.14 0.53,0.22 0.54,2.57 0.53,-0.08 0.53,-7.4 0.54,0.99 0.53,-0.11 0.54,-1.95 0.53,-3.03 0.54,3.87 0.53,-0.74 0.54,2.37 0.53,-2.14 0.54,-2.02 0.53,2 0.54,-3.41 0.53,2.31 0.54,1.52 0.53,1.72 0.53,-1.99 0.54,1.12 0.53,-0.56 0.54,-2.55 0.53,2.56 0.54,-1.23 0.53,1.64 0.54,-0.92 0.53,0.87 0.54,-5.67 0.53,4.38 0.54,1.9 0.53,-5.36 0.53,3.98 0.54,0.5 0.53,-2.04 0.54,-0.29 0.53,2.37 0.54,-3.23 0.53,-0.34 0.54,4.95 0.53,-0.99 0.54,-3.98 0.53,1.87 0.54,1.02 0.53,1.75 0.54,-0.03 0.53,-2.72 0.53,-2.47 0.54,2.91 0.53,-2.21 0.54,0.99 0.53,2.12 0.54,1.6 0.53,-0.7 0.54,-5.61 0.53,5.38 0.54,-0.37 0.53,0.13 0.54,1.24 0.53,-0.99 0.53,-1.32 0.54,0.46 0.53,-0.71 0.54,0.88 0.53,-2.48 0.54,4.14 0.53,-4.78 0.54,4.9 0.53,-2.69 0.54,2.2 0.53,-3.43 0.54,0.57 0.53,-0.28 0.54,2.21 0.53,-0.3 0.53,0.56 0.54,-6.66 0.53,5.83 0.54,-0.19 0.53,-3.27 0.54,1.5 0.53,0.58 0.54,-0.99 0.53,0.33 0.54,-0.02 0.53,1.18 0.54,0.07 0.53,-2.77 0.54,2.54 0.53,-0.36 0.53,-0.75 0.54,-0.26 0.53,0.25 0.54,-1.71 0.53,-4.82 0.54,2.95 0.53,2.67 0.54,0.67 0.53,-1.22 0.54,-0.55 0.53,1.22 0.54,0.37 0.53,1.48 0.53,-0.51 0.54,1.59 0.53,-0.17 0.54,-0.97 0.53,0.18 0.54,-0.58 0.53,2.06 0.54,0.07 0.53,0.51 0.54,-0.3 0.53,-0.46 0.54,1.16 0.53,-0.7 0.54,-1.87 0.53,-2.63 0.53,-0.37 0.54,2.37 0.53,1.92 0.54,-0.27 0.53,-0.55 0.54,-7.29 0.53,7.97 0.54,0.97 0.53,-2.13 0.54,0.65 0.53,0.51 0.54,-3.1 0.53,3.77 0.53,-1.94 0.54,1.58 0.53,0.79 0.54,0.09 0.53,-2.33 0.54,2.6 0.53,-2.43 0.54,2.25 0.53,0.36 0.54,-0.76 0.53,-0.14 0.54,-0.43 0.53,-6.8 0.54,1.89 0.53,4.2 0.53,-3.17 0.54,-1.43 0.53,4.55 0.54,-1.51 0.53,1.99 0.54,0.74 0.53,0.01 0.54,-1.07 0.53,-0.02 0.54,1.81 0.53,-3.27 0.54,1.43 0.53,1.69 0.53,0.29 0.54,0.07 0.53,-8.56 0.54,8.56 0.53,-2.23 0.54,1.38 0.53,-3.78 0.54,3.98 0.53,-1.53 0.54,-0.71 0.53,2.43 0.54,-1.7 0.53,1.58 0.54,-3.05 0.53,-1.93 0.53,5.64 0.54,-0.55 0.53,-4.91 0.54,2.38 0.53,1.45 0.54,-0.9 0.53,1.09 0.54,-0.99 0.53,0.84 0.54,1.42 0.53,-2.19 0.54,0.09 0.53,-0.18 0.54,-1.69 0.53,-2.01 0.53,-1.03 0.54,4.68 0.53,1.44 0.54,-0.26 0.53,1.3 0.54,-2.2 0.53,-2.59 0.54,3.02 0.53,0.65 0.54,0.68 0.53,-0.99 0.54,-2.05 0.53,1.33 0.53,1.81 0.54,-6.49 0.53,6.69 0.54,-2.46 0.53,-1.79 0.54,2.51 0.53,0.69 0.54,0.66 0.53,-4.35 0.54,1.21 0.53,1.17 0.54,-0.22 0.53,-0.69 0.54,1.56 0.53,-2.12 0.53,-1.91 0.54,4.11 0.53,0.94 0.54,-1.6 0.53,-0.47 0.54,1.59 0.53,0.67 0.54,-2.33 0.53,-0.8 0.54,0.67 0.53,0.7 0.54,2.78 0.53,-1.11 0.53,-1.01 0.54,0.74 0.53,-1.37 0.54,0.47 0.53,-0.94 0.54,0.87 0.53,-0.3 0.54,0.81 0.53,-0.24 0.54,-0.37 0.53,-0.11 0.54,-2.76 0.53,3.79 0.54,-1.37 0.53,1.89 0.53,-0.17 0.54,-2.23 0.53,-3.93 0.54,6.5 0.53,-2.85 0.54,1.28 0.53,1.93 0.54,-3.12 0.53,2.3 0.54,1.33 0.53,-0.62 0.54,-0.29 0.53,-1.73 0.54,-1.28 0.53,2.37 0.53,0.39 0.54,-6.45 0.53,6.2 0.54,-2.32 0.53,3.2 0.54,0.13 0.53,-2.38 0.54,-0.74 0.53,1.36 0.54,0.99 0.53,0.2 0.54,-0.46 0.53,0.92 0.53,-2.01 0.54,0.43 0.53,-5.35 0.54,-1.89 0.53,5.74 0.54,-0.89 h 0.53 l 0.54,1.13 0.53,-2.46 0.54,5.08 0.53,-0.24 0.54,-1.63 0.53,1.79 0.54,0.7 0.53,-4.07 0.53,-0.14 0.54,1.63 0.53,1.17 0.54,-0.37 0.53,0.56 0.54,-2.95 0.53,1.95 0.54,-0.12 0.53,-0.72 0.54,2.2 0.53,-0.54 0.54,0.65 0.53,0.45 0.53,-0.21 0.54,-2.45 0.53,2.27 0.54,-0.71 0.53,0.08 0.54,-1.96 0.53,1.79 0.54,-1.47 0.53,2.64 0.54,-2.9 0.53,-1.31 0.54,0.89 0.53,2.43 0.54,-1.93 0.53,1.25 0.53,0.06 0.54,0.05 0.53,1.08 0.54,-5.26 0.53,2.62 0.54,-1.48 0.53,3.88 0.54,-0.3 0.53,-0.4 0.54,-0.59 0.53,-2.85 0.54,3.7 0.53,-6.98 0.54,7.96 0.53,-1.74 0.53,-1.19 0.54,-4.51 0.53,-2.52 0.54,8.1 0.53,-1.02 0.54,-1.71 0.53,4.05 0.54,-0.26 0.53,-0.23 0.54,-2.81 0.53,-0.31 0.54,-0.57 0.53,1.89 0.53,-0.94 0.54,0.21 0.53,1.79 0.54,-0.41 0.53,1.18 0.54,-3.11 0.53,-1.5 0.54,4.4 0.53,-0.37 0.54,-0.18 0.53,-3.25 0.54,1.86 0.53,2.47 0.54,-1.05 0.53,-0.18 0.53,0.49 0.54,-2.16 0.53,2.6 0.54,-0.46 0.53,1.17 0.54,-0.98 0.53,-0.06 0.54,-2.72 0.53,-3.27 0.54,4.29 0.53,0.85 0.54,-0.32 0.53,1.57 0.53,0.4 0.54,-3.1 0.53,-1.35 0.54,5.2 0.53,-1.79 0.54,0.96 0.53,0.68 0.54,-1.05 0.53,-2.56 0.54,2.63 0.53,0.41 0.54,0.46 0.53,0.01 0.54,-5.62 0.53,4.41 0.53,-0.3 0.54,-0.34 0.53,1.78 0.54,-1.56 0.53,1.18 0.54,-5.37 0.53,4.26 0.54,-2.31 0.53,1.98 0.54,-0.35 0.53,-4.18 0.54,4.63 0.53,-3.56 0.53,5.23 0.54,-3.35 0.53,0.2 0.54,1.35 0.53,-0.68 0.54,0.97 0.53,1.17 0.54,-1.92 0.53,-2.44 0.54,2.24 0.53,-1.95 0.54,0.38 0.53,0.61 0.54,3.06 0.53,-5.01 0.53,2.16 0.54,1.01 0.53,1.68 0.54,-0.58 0.53,-0.07 0.54,0.8 0.53,0.54 0.54,-1.26 0.53,-2.5 0.54,1.77 0.53,1.8 0.54,-1.64 0.53,1.92 0.54,-0.56 0.53,-3.2 0.53,1.6 0.54,-1.84 0.53,1.6 0.54,1.26 0.53,-0.08 0.54,-4.14 0.53,-0.11 0.54,5.43 0.53,-1.73 0.54,0.21 0.53,0.72 0.54,-5.36 0.53,4.37 0.53,1.03 0.54,-2.71 0.53,0.72 0.54,2.46 0.53,-3.31 0.54,3.04 0.53,-1.43 0.54,0.89 0.53,-3.85 0.54,-0.46 0.53,4.78 0.54,-1.24 0.53,0.84 0.54,-2.29 0.53,1.78 0.53,0.22 0.54,-0.23 0.53,-1.27 0.54,-3.88 0.53,5.21 0.54,-0.37 0.53,-0.43 0.54,-0.24 0.53,0.81 0.54,1.43 0.53,-1.26 0.54,-1.56 0.53,3.02 0.53,-10.73 0.54,7.43 0.53,2.73 0.54,0.92 0.53,-1.57 0.54,1.06 0.53,-0.97 0.54,-0.73 0.53,1.63 0.54,-0.69 0.53,-0.91 0.54,-1.7 0.53,2.67 0.54,-1.24 0.53,-0.57 0.53,-0.88 0.54,2.55 0.53,-5.53 0.54,4.95 0.53,-3.81 0.54,4.31 0.53,-0.84 0.54,0.01 0.53,1.41 0.54,-1.19 0.53,-11.13 0.54,7.16 0.53,-1.4 0.54,0.15 0.53,3.93 0.53,0.11 0.54,-6.11 0.53,3.61 0.54,2.92 0.53,1.4 0.54,0.55 0.53,-4.38 0.54,4.44 0.53,0.96 0.54,-1.29 0.53,0.8 0.54,-2.69 0.53,1.4 0.53,-7.59 0.54,5.41 0.53,-2.8 0.54,3.26 0.53,3.37 0.54,-2.41 0.53,2.17 0.54,-0.79 0.53,0.2 0.54,0.29 0.53,0.44 0.54,-0.77 0.53,-0.24 0.54,-0.98 0.53,-5.72 0.53,7.03 0.54,-1.7 0.53,0.76 0.54,0.83 0.53,-3.11 0.54,1.66 0.53,0.75 0.54,-3.66 0.53,2.9 0.54,1.92 0.53,-0.82 0.54,-5.09 0.53,3.5 0.53,1.63 0.54,-0.29 0.53,-0.13 0.54,-0.67 0.53,1.66 0.54,-0.64 0.53,0.69 0.54,0.15 0.53,-2.3 0.54,2.62 0.53,-1.25 0.54,1.35 0.53,-1.29 0.54,0.56 0.53,-1.78 0.53,1.47 0.54,-1.05 0.53,1.21 0.54,-2.89 0.53,0.33 0.54,2.69 0.53,-2.75 0.54,-0.43 0.53,0.68 0.54,2.45 0.53,-2.89 0.54,1.73 0.53,0.99 0.54,0.66 0.53,-3.57 0.53,0.71 0.54,2.69 0.53,-3.03 0.54,2.49 0.53,-1.71 0.54,2.28 0.53,-4 0.54,3.81 0.53,-6.65 0.54,2.51 0.53,3.67 0.54,-2.58 0.53,1.21 0.53,-2.36 0.54,2.38 0.53,-4.72 0.54,4.5 0.53,-3.9 0.54,2.05 0.53,1.34 0.54,1.01 0.53,1.2 0.54,-2 0.53,2.25 0.54,-0.92 0.53,-5.74 0.54,4.14 0.53,1.49 0.53,0.01 0.54,-1.26 0.53,0.67 0.54,-3.36 0.53,-0.43 0.54,6.07 0.53,-3.51 0.54,2.43 0.53,-0.17 0.54,-1.06 0.53,0.52 0.54,-1.59 0.53,-6.05 0.53,8.42 0.54,-2.36 0.53,0.86 0.54,-0.85 0.53,1.67 0.54,-2.29 0.53,2.14 0.54,-1.14 0.53,-0.18 0.54,1.93 0.53,-0.86 0.54,-1.76 0.53,-0.14 0.54,1.74 0.53,0.37 0.53,-1.49 0.54,0.16 0.53,1 0.54,0.85 0.53,-2.17 0.54,-1.23 0.53,2.09 0.54,-1.14 0.53,0.95 0.54,1.84 0.53,-0.4 h 0.54 l 0.53,-3.99 0.53,4.51 0.54,-1.01 0.53,0.59 0.54,-2.64 0.53,2.37 0.54,-1.99 0.53,0.88 0.54,-2.25 0.53,2.24 0.54,0.24 0.53,-0.87 0.54,2.87 0.53,-1.88 0.54,-1.16 0.53,-0.77 0.53,1.65 0.54,1.54 0.53,-2.82 0.54,0.28 0.53,3.02 0.54,-4.03 0.53,3.48 0.54,-1.12 0.53,0.71 0.54,-2.37 0.53,1.59 0.54,-0.56 0.53,1.59 0.54,-0.39 0.53,-1.79 0.53,2.85 0.54,-3.59 0.53,2.25 0.54,-0.7 0.53,-1.38 0.54,2.24 0.53,-0.11 0.54,-1.24 0.53,0.71 0.54,-3.75 0.53,5.7 0.54,-3.02 0.53,1.23 0.53,-4.24 0.54,1.3 0.53,4.61 0.54,-2.69 0.53,0.42 0.54,1.86 0.53,-0.62 0.54,-3.78 0.53,3.77 0.54,0.37 0.53,-0.09 0.54,-0.37 0.53,0.97 0.54,-2.88 0.53,-4.72 0.53,7.08 0.54,-0.57 0.53,0.9 0.54,-3.03 0.53,-0.03 0.54,-7.59 0.53,8.82 0.54,-2.23 0.53,2.03 0.54,1.44 0.53,1.13 0.54,-1.03 0.53,0.44 0.53,-2.54" /></g></g><g
       id="g104"><g
         clip-path="url(#clipPath110)"
         id="g106"><path
           id="path152"
           style="fill:none;stroke:#4078c0;stroke-width:2.13;stroke-linecap:butt;stroke-linejoin:round;stroke-miterlimit:10;stroke-dasharray:none;stroke-opacity:1"
           d="m 81.7,580.42 0.54,-70.23 0.53,102.52 0.54,-86.41 0.53,52.51 0.54,-70.87 0.53,27.54 0.53,-1.27 0.54,8.57 0.53,-73.99 0.54,59.48 0.53,14.96 0.54,-25.62 0.53,6.99 0.54,-49.98 0.53,67.5 0.54,-24.36 0.53,85.34 0.54,-74.29 0.53,41.82 0.54,-25.9 0.53,13.98 0.53,-12.25 0.54,15.3 0.53,-39.59 0.54,-14.61 0.53,44.59 0.54,-52.51 0.53,65.94 0.54,-6.06 0.53,-27.28 0.54,17.31 0.53,8.57 0.54,-11.31 0.53,-14.58 0.53,34.5 0.54,-19.43 0.53,14.39 0.54,21.06 0.53,-43.9 0.54,33.42 0.53,6.71 0.54,-4.13 0.53,-31.51 0.54,34.51 0.53,-15.99 0.54,1.03 0.53,-27.73 0.54,12.54 0.53,8.63 0.53,2.88 0.54,8.67 0.53,-23.2 0.54,5.36 0.53,-5.32 0.54,23 0.53,-13.29 0.54,3.41 0.53,-6.61 0.54,10.89 0.53,-41.06 0.54,34.21 0.53,7.14 0.54,-5.21 0.53,-13.39 0.53,10.88 0.54,-6.23 0.53,9.95 0.54,-7.06 0.53,6.86 0.54,-11.54 0.53,7.17 0.54,0.52 0.53,-7.1 0.54,25.1 0.53,9.69 0.54,-18.82 0.53,7.6 0.53,-15.24 0.54,12.26 0.53,-8.21 0.54,6.46 0.53,21.07 0.54,-17.06 0.53,4.03 0.54,0.57 0.53,-13.85 0.54,-9.5 0.53,19.63 0.54,-2.05 0.53,10.41 0.54,-13.69 0.53,-17.11 0.53,14.62 0.54,-11.85 0.53,22.75 0.54,-15.51 0.53,4.58 0.54,-16.94 0.53,4.72 0.54,5.15 0.53,-9.46 0.54,4.66 0.53,2.39 0.54,5.05 0.53,-6.77 0.53,-4.57 0.54,11.66 0.53,-8.47 0.54,7.97 0.53,-2.76 0.54,-9.4 0.53,5.9 0.54,-6.79 0.53,8.78 0.54,1.05 0.53,-1.97 0.54,-2.41 0.53,2.29 0.54,-1.58 0.53,3.85 0.53,5.84 0.54,-13.51 0.53,5.97 0.54,4.33 0.53,3.31 0.54,-4.34 0.53,2.71 0.54,-10.48 0.53,5.94 0.54,-9.2 0.53,7.82 0.54,6.38 0.53,3.39 0.54,-12.04 0.53,11.3 0.53,-3.94 0.54,-1.42 0.53,1.92 0.54,-3.53 0.53,-4.19 0.54,6.3 0.53,-1.48 0.54,4.2 0.53,-10.66 0.54,2.31 0.53,5.51 0.54,-0.83 0.53,0.72 0.53,0.17 0.54,-4.13 0.53,7.35 0.54,-3.05 0.53,1.86 0.54,-2.78 0.53,-1.8 0.54,2.89 0.53,4.12 0.54,-6.77 0.53,-1.64 0.54,2.65 0.53,0.18 0.54,-4.51 0.53,6.07 0.53,1.96 0.54,-7.87 0.53,3.95 0.54,-2.89 0.53,2.37 0.54,1.79 0.53,-2.96 0.54,2.73 0.53,3.13 0.54,-7.21 0.53,2.56 0.54,-4.76 0.53,3.78 0.53,-2.72 0.54,5.72 0.53,-0.46 0.54,-2.47 0.53,2.52 0.54,-1.33 0.53,0.95 0.54,0.94 0.53,-0.98 0.54,0.69 0.53,-6.67 0.54,6.26 0.53,2.12 0.54,2.87 0.53,-5.49 0.53,3.09 0.54,-0.2 0.53,-1.42 0.54,-1.29 0.53,-2.43 0.54,1.23 0.53,-0.17 0.54,1.46 0.53,0.4 0.54,4.83 0.53,-5.49 0.54,0.5 0.53,-0.53 0.54,-0.16 0.53,0.04 0.53,-0.14 0.54,-1.11 0.53,-3.22 0.54,5.46 0.53,-0.47 0.54,-1.02 0.53,-3.34 0.54,6.97 0.53,-2 0.54,-4.2 0.53,0.12 0.54,0.81 0.53,3.86 0.53,-3.25 0.54,5.82 0.53,-3.03 0.54,-1.97 0.53,4.5 0.54,-3.55 0.53,0.01 0.54,-2.92 0.53,3.97 0.54,0.31 0.53,-5.56 0.54,4.3 0.53,0.14 0.54,-0.79 0.53,-0.34 0.53,-1.78 0.54,-0.68 0.53,2.33 0.54,3.34 0.53,-0.72 0.54,-3.8 0.53,4.65 0.54,-0.68 0.53,-5.33 0.54,0.22 0.53,1.14 0.54,-0.62 0.53,1.94 0.53,1.49 0.54,-0.82 0.53,-1.04 0.54,0.87 0.53,-1.46 0.54,0.06 0.53,-0.66 0.54,5.72 0.53,-4.09 0.54,-0.78 0.53,0.05 0.54,-0.73 0.53,1.52 0.54,-0.3 0.53,4.38 0.53,-2.19 0.54,-4.68 0.53,0.43 0.54,0.31 0.53,2.74 0.54,0.63 0.53,-1.19 0.54,-1.87 0.53,4.9 0.54,-1.64 0.53,-2.97 0.54,1.7 0.53,2.26 0.53,-3.18 0.54,1.8 0.53,0.47 0.54,-1.7 0.53,2.3 0.54,-0.61 0.53,-2.03 0.54,-2.94 0.53,3.3 0.54,-3.82 0.53,2.56 0.54,-1.17 0.53,6.36 0.54,-3.59 0.53,1.23 0.53,-0.31 0.54,0.87 0.53,0.33 0.54,0.92 0.53,-4.37 0.54,-0.09 0.53,1.01 0.54,1.34 0.53,-2.39 0.54,2.75 0.53,-0.93 0.54,3.09 0.53,-3.32 0.54,3.68 0.53,-3.95 0.53,4.79 0.54,-4.71 0.53,2.27 0.54,-5.78 0.53,4.44 0.54,-0.78 0.53,2.59 0.54,-4.35 0.53,3.92 0.54,-0.77 0.53,-1.89 0.54,2.9 0.53,-4.55 0.53,2.35 0.54,1.45 0.53,0.08 0.54,1.35 0.53,-4.94 0.54,-0.12 0.53,0.99 0.54,2.39 0.53,-1.58 0.54,-0.04 0.53,2.63 0.54,1.26 0.53,-2.84 0.54,-1.54 0.53,0.2 0.53,-2.9 0.54,2.9 0.53,1.14 0.54,-2.08 0.53,4.99 0.54,-2.02 0.53,-1 0.54,-2.48 0.53,2.3 0.54,0.81 0.53,-1.88 0.54,2.93 0.53,-1.54 0.53,2.5 0.54,-5.47 0.53,1.96 0.54,1.93 0.53,0.67 0.54,-2.47 0.53,-0.84 0.54,3.07 0.53,-2.89 0.54,3.8 0.53,-5.83 0.54,5.33 0.53,-0.37 0.54,-3.57 0.53,2.23 0.53,-1.11 0.54,1.46 0.53,0.73 0.54,-1.47 0.53,1.16 0.54,-1.58 0.53,-1.71 0.54,2.11 0.53,-0.54 0.54,-0.94 0.53,-0.04 0.54,1.75 0.53,-2.63 0.54,2.02 0.53,2.92 0.53,-2.11 0.54,1.15 0.53,-2.44 0.54,3.26 0.53,-6.94 0.54,7.69 0.53,-3.5 0.54,0.48 0.53,-0.52 0.54,0.93 0.53,-0.19 0.54,1.9 0.53,-1.71 0.53,2.12 0.54,-0.37 0.53,-1.74 0.54,2.39 0.53,-3.64 0.54,0.37 0.53,1.35 0.54,1.13 0.53,-0.09 0.54,-0.1 0.53,-2.59 0.54,-0.71 0.53,2.15 0.54,-1.08 0.53,-1.18 0.53,-2.22 0.54,7.33 0.53,-5.24 0.54,0.23 0.53,0.07 0.54,-1.44 0.53,0.41 0.54,4.25 0.53,-1.65 0.54,2.31 0.53,-2.82 0.54,-0.35 0.53,0.01 0.53,-1.75 0.54,3.39 0.53,-2.32 0.54,0.89 0.53,4.58 0.54,-2.54 0.53,-1.69 0.54,-0.21 0.53,1.28 0.54,1.98 0.53,-0.42 0.54,-0.89 0.53,-1.64 0.54,-2.75 0.53,5.94 0.53,-3.53 0.54,0.14 0.53,1.57 0.54,2.65 0.53,-3.95 0.54,0.71 0.53,1.22 0.54,-2.16 0.53,-0.22 0.54,0.37 0.53,-3.65 0.54,2.13 0.53,2.58 0.53,-1.87 0.54,-0.09 0.53,1.09 0.54,-0.83 0.53,-1.67 0.54,1.39 0.53,3.53 0.54,-0.59 0.53,-3.51 0.54,1.84 0.53,-1.28 0.54,-0.72 0.53,1.63 0.54,5.23 0.53,-0.48 0.53,-4.15 0.54,1.91 0.53,-1.44 0.54,-0.09 0.53,0.03 0.54,-1.33 0.53,-0.21 0.54,2.06 0.53,-1.9 0.54,0.94 0.53,-0.36 0.54,1.52 0.53,-2.23 0.54,-1.55 0.53,0.49 0.53,2.46 0.54,-3.31 0.53,5.43 0.54,-3.58 0.53,0.63 0.54,1.02 0.53,-0.76 0.54,0.47 0.53,-2.08 0.54,2.96 0.53,-2.61 0.54,2.89 0.53,-2.53 0.53,0.41 0.54,-2.94 0.53,2.16 0.54,1.29 0.53,-2.12 0.54,1.45 0.53,0.32 0.54,0.03 0.53,-4.29 0.54,1.85 0.53,3.56 0.54,-3.82 0.53,5.16 0.54,-4.83 0.53,0.47 0.53,1.31 0.54,1.02 0.53,1.93 0.54,-4.04 0.53,3.67 0.54,-0.27 0.53,-0.45 0.54,-2.08 0.53,3.36 0.54,-0.18 0.53,-2.33 0.54,0.68 0.53,-0.01 0.53,-2.36 0.54,1.77 0.53,-3.73 0.54,4.66 0.53,0.75 0.54,-0.34 0.53,-0.47 0.54,1.32 0.53,-3.4 0.54,4.95 0.53,-3.82 0.54,-1.68 0.53,3.42 0.54,-4.97 0.53,2.36 0.53,-1.05 0.54,2.22 0.53,2.86 0.54,-3.34 0.53,2.03 0.54,0.84 0.53,0.01 0.54,0.89 0.53,-3.68 0.54,0.59 0.53,-0.76 0.54,1.66 0.53,1.59 0.54,-2.56 0.53,1.41 0.53,0.31 0.54,-3.52 0.53,1 0.54,-2.73 0.53,4.3 0.54,-2.01 0.53,0.66 0.54,4.7 0.53,-3.61 0.54,-2.48 0.53,0.42 0.54,2.1 0.53,-0.77 0.53,0.01 0.54,0.81 0.53,-4.33 0.54,1.5 0.53,0.24 0.54,5.44 0.53,-5.14 0.54,2.53 0.53,-2.03 0.54,1.19 0.53,1.93 0.54,-3.65 0.53,0.73 0.54,1.92 0.53,-1.28 0.53,0.41 0.54,2.39 0.53,-3.06 0.54,-2.13 0.53,1.29 0.54,3.17 0.53,-2.74 0.54,-1.98 0.53,1.34 0.54,2.68 0.53,0.93 0.54,-4.03 0.53,1.51 0.53,0.22 0.54,-1.25 0.53,0.74 0.54,0.21 0.53,1.36 0.54,-0.09 0.53,-0.04 0.54,-0.84 0.53,1.26 0.54,0.27 0.53,-0.53 0.54,0.9 0.53,-0.37 0.54,-3.42 0.53,4.17 0.53,-1.5 0.54,2.37 0.53,-3.09 0.54,-1.69 0.53,2.61 0.54,2.42 0.53,-1.91 0.54,-0.65 0.53,-0.5 0.54,2.14 0.53,3.95 0.54,-4.25 0.53,-3.46 0.54,2.44 0.53,-0.82 0.53,-0.79 0.54,-2.96 0.53,-3.34 0.54,3.87 0.53,2.99 0.54,1.23 0.53,-1.89 0.54,3.19 0.53,-3.13 0.54,-1.32 0.53,0.93 0.54,-3.89 0.53,2.26 0.53,0.92 0.54,2.18 0.53,2.16 0.54,-4.79 0.53,3.33 0.54,-4.16 0.53,2.34 0.54,3 0.53,-0.02 0.54,-4.63 0.53,4.26 0.54,-5.2 0.53,2.77 0.54,-2.41 0.53,3.7 0.53,0.23 0.54,-2.02 0.53,2.15 0.54,-1.37 0.53,-0.16 0.54,2.16 0.53,-0.28 0.54,-1.28 0.53,-1.74 0.54,4.58 0.53,-2.52 0.54,-0.01 0.53,-1.7 0.53,-0.15 0.54,3.05 0.53,-3.78 0.54,2.15 0.53,-0.64 0.54,0.76 0.53,0.65 0.54,1.21 0.53,-2.82 0.54,3.83 0.53,-0.68 0.54,-0.34 0.53,-1.75 0.54,0.14 0.53,-2.46 0.53,0.5 0.54,0.46 0.53,-0.89 0.54,1.78 0.53,-1.33 0.54,1.34 0.53,0.35 0.54,-3.59 0.53,3.91 0.54,-2.81 0.53,3.02 0.54,1.1 0.53,-5.14 0.53,2.97 0.54,-1.03 0.53,3.22 0.54,-2.1 0.53,-0.54 0.54,-0.51 0.53,1.89 0.54,-1.32 0.53,-2.6 0.54,4.62 0.53,1.43 0.54,-0.99 0.53,-5.59 0.54,2.86 0.53,3.39 0.53,-2.57 0.54,0.59 0.53,0.4 0.54,-1.67 0.53,-0.28 0.54,3.17 0.53,-3.26 0.54,1.22 0.53,-0.27 0.54,2 0.53,-2.95 0.54,2.56 0.53,-1.29 0.54,1 0.53,-3.24 0.53,5.4 0.54,-2.06 0.53,-2.44 0.54,-0.2 0.53,3.06 0.54,-3.05 0.53,-1.94 0.54,4.02 0.53,-2.31 0.54,4.67 0.53,-5.15 0.54,-0.23 0.53,3.35 0.53,-1.91 0.54,5.01 0.53,-3.49 0.54,-0.79 0.53,1.49 0.54,0.06 0.53,0.49 0.54,-1.94 0.53,-1.82 0.54,6.1 0.53,-6.66 0.54,2.22 0.53,0.02 0.54,-3.38 0.53,5.25 0.53,-0.87 0.54,0.69 0.53,-0.1 0.54,-1.01 0.53,1.08 0.54,0.53 0.53,-3.1 0.54,-1.74 0.53,0.26 0.54,3.06 0.53,-2.09 0.54,-0.43 0.53,3.22 0.53,-1.63 0.54,-1.72 0.53,1.53 0.54,0.63 0.53,1.24 0.54,0.5 0.53,-2.81 0.54,-1.33 0.53,3.62 0.54,2.17 0.53,-2.94 0.54,-1.6 0.53,1.75 0.54,1.12 0.53,-0.91 0.53,-1.76 0.54,2.54 0.53,-4.83 0.54,4.06 0.53,-4.85 0.54,4.67 0.53,-0.69 0.54,-1.54 0.53,3.96 0.54,-3.42 0.53,-7.94 0.54,5.36 0.53,4.22 0.54,-3.5 0.53,3.51 0.53,-1.21 0.54,-6.1 0.53,9.49 0.54,0.47 0.53,-2.91 0.54,-0.45 0.53,0.71 0.54,0.46 0.53,0.08 0.54,-2.46 0.53,2.91 0.54,-1.91 0.53,-1.85 0.53,2.92 0.54,-2.73 0.53,5.01 0.54,-0.51 0.53,-2.63 0.54,0.26 0.53,1.98 0.54,-3.41 0.53,0.3 0.54,1.45 0.53,-0.49 0.54,-0.23 0.53,0.59 0.54,-2.83 0.53,-0.26 0.53,2.02 0.54,1.16 0.53,-2.5 0.54,2.97 0.53,-4.29 0.54,2.93 0.53,1.3 0.54,-1.18 0.53,2.04 0.54,-2.21 0.53,2.91 0.54,-3.05 0.53,-2.64 0.53,1.19 0.54,-0.85 0.53,3.05 0.54,-1.58 0.53,3.18 0.54,0.3 0.53,-2.51 0.54,0.51 0.53,2.49 0.54,-2.47 0.53,2.4 0.54,-0.84 0.53,0.08 0.54,-0.08 0.53,-1.76 0.53,-0.12 0.54,-0.21 0.53,1.23 0.54,-1.64 0.53,-2.35 0.54,3.68 0.53,-1.91 0.54,-1.58 0.53,4.88 0.54,-2.21 0.53,-2.91 0.54,2.07 0.53,3.75 0.54,-2.78 0.53,-2.46 0.53,2 0.54,-1.11 0.53,0.23 0.54,3.31 0.53,-2.21 0.54,-0.65 0.53,-2.31 0.54,4.27 0.53,3.06 0.54,-3.85 0.53,0.26 0.54,-0.9 0.53,3.46 0.53,-1.27 0.54,-0.81 0.53,-1.11 0.54,1.71 0.53,-3.43 0.54,3.69 0.53,-2.6 0.54,-0.35 0.53,1.09 0.54,1.04 0.53,1.12 0.54,-2.95 0.53,4.21 0.54,-3.31 0.53,1.5 0.53,0.88 0.54,-1.26 0.53,-4.14 0.54,0.08 0.53,3.13 0.54,0.27 0.53,2.51 0.54,-0.97 0.53,0.31 0.54,-2.68 0.53,-1.16 0.54,-0.41 0.53,-0.07 0.53,0.99 0.54,2.16 0.53,2.26 0.54,-4.01 0.53,-0.97 0.54,0.96 0.53,4.4 0.54,-4.82 0.53,-0.84 0.54,-0.56 0.53,2.79 0.54,-1.1 0.53,-2.04 0.54,2.23 0.53,1.22 0.53,-2.6 0.54,2.56 0.53,-0.36 0.54,0.7 0.53,-2.78 0.54,0.19 0.53,3.91 0.54,-2.81 0.53,0.85 0.54,-1.7 0.53,4.46 0.54,-5.27 0.53,2.38 0.53,-0.78 0.54,0.68 0.53,0.8 0.54,-1.97 0.53,0.85 0.54,-2.79 0.53,4.07 0.54,-1.1 0.53,0.44 0.54,1.17 0.53,0.1 0.54,-1.46 0.53,-0.44 0.54,-0.58 0.53,4.45 0.53,-2.16 0.54,0.57 0.53,0.96 0.54,-0.19 0.53,-4.44 0.54,1.17 0.53,0.9 0.54,-1.14 0.53,-0.56 0.54,-1.14 0.53,1.88 0.54,3.64 0.53,-3.6 0.54,3.53 0.53,-4.14 0.53,-0.04 0.54,2.03 0.53,-1.84 0.54,-2.02 0.53,1.27 0.54,1.43 0.53,-2.42 0.54,0.86 0.53,5.53 0.54,-1.29 0.53,-3 0.54,5.79 0.53,-8.75 0.53,4.18 0.54,1.46 0.53,-1.46 0.54,0.77 0.53,-0.7 0.54,-1.48 0.53,0.85 0.54,-5.58 0.53,5.51 0.54,-1.82 0.53,3.32 0.54,-1.19 0.53,1.57 0.54,-1.97 0.53,-0.09 0.53,2.33 0.54,-0.76 0.53,-0.05 0.54,1.95 0.53,-3.39 0.54,-7.1 0.53,8.87 0.54,0.96 0.53,-6.74 0.54,6.26 0.53,-1.08 0.54,1.17 0.53,0.16 0.53,-0.67" /></g></g><g
       id="g158"><g
         clip-path="url(#clipPath164)"
         id="g160"><path
           id="path204"
           style="fill:none;stroke:#4078c0;stroke-width:2.13;stroke-linecap:butt;stroke-linejoin:round;stroke-miterlimit:10;stroke-dasharray:none;stroke-opacity:1"
           d="m 81.7,377.99 0.54,-7.42 0.53,9.61 0.54,2.27 0.53,-8.56 0.54,-12.53 0.53,12.27 0.53,-13.86 0.54,5.64 0.53,1.27 0.54,-6.91 0.53,9.28 0.54,-6.11 0.53,-7.82 0.54,6.45 0.53,-10.27 0.54,-0.32 0.53,15.61 0.54,-18.36 0.53,-1.56 0.54,-2.56 0.53,23.53 0.53,-26.31 0.54,-0.17 0.53,2.84 0.54,-13.15 0.53,2.71 0.54,23.93 0.53,-17.87 0.54,-12.76 0.53,46.07 0.54,-51.92 0.53,21.35 0.54,0.48 0.53,-14.05 0.53,-0.29 0.54,-5.15 0.53,7.75 0.54,-4.94 0.53,13.15 0.54,-14.4 0.53,8.67 0.54,-1.8 0.53,-17.93 0.54,16.13 0.53,21.71 0.54,-40.01 0.53,25.31 0.54,-21.01 0.53,7.01 0.53,-1.91 0.54,8.34 0.53,-14.08 0.54,9.33 0.53,-8.99 0.54,5.15 0.53,-2.02 0.54,-4.11 0.53,24.48 0.54,-34.62 0.53,0.84 0.54,8.18 0.53,13.9 0.54,-16.41 0.53,23.16 0.53,-0.3 0.54,-13.29 0.53,-20.35 0.54,16.63 0.53,14.33 0.54,-3.5 0.53,-15.59 0.54,-0.51 0.53,65.02 0.54,-54.61 0.53,-21.15 0.54,10.25 0.53,-1.06 0.53,-11.84 0.54,12.5 0.53,-0.67 0.54,23.44 0.53,-44.99 0.54,53.03 0.53,-20.69 0.54,3.41 0.53,-2.86 0.54,3.89 0.53,-21.37 0.54,-8.46 0.53,21.29 0.54,-1.6 0.53,-5.48 0.53,26.34 0.54,-22.75 0.53,5.37 0.54,-16.37 0.53,15.13 0.54,-12.4 0.53,6.22 0.54,4.56 0.53,-4.4 0.54,8.13 0.53,2.88 0.54,-12.99 0.53,3.83 0.53,-20.29 0.54,48.34 0.53,-38.76 0.54,20.53 0.53,20.24 0.54,-23.5 0.53,-12.38 0.54,24.31 0.53,-31.71 0.54,-12.4 0.53,22.63 0.54,10.34 0.53,-6.89 0.54,-5.52 0.53,37.1 0.53,-16.54 0.54,-21.28 0.53,-0.56 0.54,10.25 0.53,-11.06 0.54,-14.36 0.53,26.7 0.54,-36.05 0.53,23.14 0.54,3.92 0.53,-18.33 0.54,3.54 0.53,-4.21 0.54,-4.78 0.53,7.78 0.53,-5.9 0.54,-3.68 0.53,7.77 0.54,4.75 0.53,-0.42 0.54,41.05 0.53,31.49 0.54,-80.81 0.53,5.49 0.54,24.52 0.53,-23.46 0.54,3 0.53,7.12 0.53,-18.76 0.54,8.96 0.53,14.62 0.54,-25.78 0.53,5.96 0.54,3.89 0.53,-1.49 0.54,17.65 0.53,-9.31 0.54,-11.63 0.53,1 0.54,11.68 0.53,-13.08 0.54,-0.13 0.53,18.18 0.53,-0.66 0.54,-11.5 0.53,24.63 0.54,-27.36 0.53,59.32 0.54,-49.46 0.53,14.96 0.54,-17.56 0.53,32.14 0.54,-37.74 0.53,15.43 0.54,12.69 0.53,-17.17 0.53,6.73 0.54,-9.31 0.53,-17.1 0.54,11.06 0.53,-18.22 0.54,3.63 0.53,2.66 0.54,38.55 0.53,79.4 0.54,-115.14 0.53,-3.72 0.54,9.2 0.53,2.08 0.54,-1.71 0.53,4.77 0.53,33.4 0.54,-28.88 0.53,-12.86 0.54,50.85 0.53,-34.28 0.54,48.34 0.53,-75.97 0.54,14.18 0.53,-2.32 0.54,32.26 0.53,-26.33 0.54,-4.67 0.53,12.46 0.54,-23.6 0.53,39.58 0.53,0.92 0.54,40.91 0.53,-67.58 0.54,-6 0.53,18.34 0.54,67.54 0.53,-85.06 0.54,-2.16 0.53,9.11 0.54,21.42 0.53,-29.51 0.54,4.15 0.53,-5.39 0.53,5 0.54,4.36 0.53,2.97 0.54,-19.32 0.53,38.9 0.54,-22.22 0.53,-18.82 0.54,25.36 0.53,7.96 0.54,-17.32 0.53,17.12 0.54,22.52 0.53,-7.64 0.54,-46.82 0.53,-10.05 0.53,30.99 0.54,-14 0.53,-9.31 0.54,106.85 0.53,-84.35 0.54,1.57 0.53,-4.75 0.54,-11.58 0.53,-6.69 0.54,6.32 0.53,-1.88 0.54,16.27 0.53,-9.23 0.53,45.29 0.54,-11.72 0.53,-28.08 0.54,-4.6 0.53,-3.31 0.54,29.82 0.53,-8.56 0.54,-7.6 0.53,7.8 0.54,-32.49 0.53,78.6 0.54,-67.99 0.53,25 0.54,-26.61 0.53,51.26 0.53,-45.36 0.54,-18.87 0.53,10.97 0.54,4.81 0.53,33.8 0.54,-32.49 0.53,-4 0.54,7.38 0.53,-0.1 0.54,0.29 0.53,-5.01 0.54,7.76 0.53,30.64 0.53,-21.02 0.54,-3.32 0.53,-13.78 0.54,8.5 0.53,-6.42 0.54,0.14 0.53,27.73 0.54,-32.7 0.53,61.8 0.54,-44.68 0.53,-25.92 0.54,8.95 0.53,8.32 0.54,-24.91 0.53,79.75 0.53,-56.23 0.54,-21.61 0.53,16.25 0.54,5.38 0.53,-2.25 0.54,-2.46 0.53,-3.79 0.54,12.44 0.53,-8.7 0.54,20.96 0.53,-3.66 0.54,-24.43 0.53,45.78 0.54,5.53 0.53,-56.21 0.53,-0.71 0.54,19.22 0.53,9.57 0.54,-9.2 0.53,20.21 0.54,-27.15 0.53,-15.2 0.54,4.7 0.53,43.03 0.54,-49.88 0.53,37.02 0.54,-16.6 0.53,-11.09 0.53,-6.23 0.54,-1.09 0.53,100.65 0.54,-69.59 0.53,15.48 0.54,-19.22 0.53,-10.99 0.54,16.94 0.53,1.9 0.54,-42.96 0.53,30.39 0.54,-35.36 0.53,37.71 0.54,-11.38 0.53,4.42 0.53,7.54 0.54,-21.26 0.53,15.63 0.54,67.43 0.53,-61.44 0.54,-12.68 0.53,22.6 0.54,-7.98 0.53,-30.36 0.54,8.54 0.53,12.4 0.54,9.05 0.53,43.09 0.53,-47.61 0.54,-16.28 0.53,5.93 0.54,7.93 0.53,22.62 0.54,-13.46 0.53,9.22 0.54,-17.03 0.53,-7.35 0.54,-0.42 0.53,8.57 0.54,-4.05 0.53,-2.86 0.54,8.98 0.53,0.58 0.53,-13.03 0.54,-15.35 0.53,39.69 0.54,35.48 0.53,-54.39 0.54,-2.83 0.53,-6.33 0.54,26.52 0.53,-9.15 0.54,-3.85 0.53,-5.13 0.54,2.99 0.53,4.12 0.54,14.9 0.53,11.62 0.53,-26.41 0.54,11.06 0.53,-24.4 0.54,17.27 0.53,-7.99 0.54,80.36 0.53,-75.96 0.54,-3.67 0.53,2.91 0.54,-17.44 0.53,40.83 0.54,-19.68 0.53,-9.72 0.53,22.6 0.54,12.92 0.53,-60.45 0.54,68.46 0.53,-22.48 0.54,17.57 0.53,-13.64 0.54,-18.48 0.53,33.24 0.54,-44.94 0.53,-11.53 0.54,33.81 0.53,-20.53 0.54,5.5 0.53,4.19 0.53,-20.05 0.54,7.04 0.53,41 0.54,-11.62 0.53,-16.4 0.54,1.8 0.53,15.17 0.54,2.18 0.53,-43 0.54,12.37 0.53,21.82 0.54,-29.22 0.53,28.69 0.53,4.74 0.54,-8.7 0.53,-13.03 0.54,4.29 0.53,-21.07 0.54,8.22 0.53,22.23 0.54,-8.53 0.53,-18.05 0.54,34.81 0.53,-4.88 0.54,-25.7 0.53,25.51 0.54,-11.46 0.53,6.63 0.53,-17.81 0.54,47.42 0.53,-44.2 0.54,25.41 0.53,-23.4 0.54,-9.35 0.53,71.81 0.54,-52.51 0.53,-13.9 0.54,17.76 0.53,-5.74 0.54,-18.95 0.53,31.03 0.53,20.36 0.54,-23.36 0.53,-39.33 0.54,31.37 0.53,-12.82 0.54,-1.99 0.53,-20.55 0.54,31.14 0.53,-18.77 0.54,30.05 0.53,-26.29 0.54,-9.86 0.53,23.3 0.54,11.58 0.53,-3.68 0.53,-3.28 0.54,0.69 0.53,-29.59 0.54,32.43 0.53,15.16 0.54,-38.92 0.53,6.6 0.54,36.53 0.53,-2.11 0.54,-35.41 0.53,22.16 0.54,9.26 0.53,-16.82 0.54,4.14 0.53,4.91 0.53,-7.15 0.54,-17.14 0.53,5.27 0.54,21.26 0.53,-10.18 0.54,-8.6 0.53,28.47 0.54,-42.27 0.53,18.81 0.54,31.21 0.53,-12.51 0.54,-3.77 0.53,-21.54 0.53,-0.82 0.54,27.24 0.53,-13.78 0.54,-7.78 0.53,0.97 0.54,6.99 0.53,41.73 0.54,-49.78 0.53,14.59 0.54,-30.86 0.53,26.64 0.54,-1.66 0.53,6.31 0.54,-1.5 0.53,-20.76 0.53,5.07 0.54,-1.67 0.53,34.92 0.54,80.2 0.53,-65.27 0.54,-47.75 0.53,11.13 0.54,10.28 0.53,-13.12 0.54,-6.99 0.53,-26.63 0.54,19.4 0.53,14.86 0.53,-12.57 0.54,49.95 0.53,-43.78 0.54,23.46 0.53,9.38 0.54,-30.07 0.53,-20.42 0.54,51.61 0.53,-11.25 0.54,-5.63 0.53,-19.22 0.54,-9.52 0.53,7.85 0.54,13.71 0.53,-4.69 0.53,12.07 0.54,-16.81 0.53,67.78 0.54,-69.67 0.53,-7.67 0.54,-19.08 0.53,57.8 0.54,-4.72 0.53,-17.67 0.54,-19.95 0.53,-8.7 0.54,28.32 0.53,-28.15 0.54,37.34 0.53,-30.21 0.53,33.64 0.54,-10.36 0.53,0.02 0.54,-23.72 0.53,60.85 0.54,-5.54 0.53,-40.03 0.54,31.95 0.53,-39.54 0.54,10.34 0.53,6.49 0.54,0.22 0.53,-3.32 0.53,-5.31 0.54,-24.49 0.53,32.75 0.54,-16.8 0.53,-17.25 0.54,30.54 0.53,-6.42 0.54,-27.74 0.53,30.16 0.54,32.82 0.53,-55.18 0.54,46.97 0.53,3.71 0.54,4.68 0.53,-55.44 0.53,36.79 0.54,21.72 0.53,-47.77 0.54,19.87 0.53,-22.63 0.54,9.93 0.53,-6.13 0.54,-6.96 0.53,22.38 0.54,11.61 0.53,-26.44 0.54,-1.85 0.53,12.35 0.53,-25.02 0.54,23.64 0.53,4.26 0.54,-3.23 0.53,80.01 0.54,-88.48 0.53,15.31 0.54,7.38 0.53,60.84 0.54,-48.58 0.53,4.53 0.54,-43.77 0.53,20.99 0.54,-13.46 0.53,65.63 0.53,-53.63 0.54,20.2 0.53,43.88 0.54,-57.27 0.53,-37.7 0.54,42.82 0.53,3.2 0.54,-14.07 0.53,-20.77 0.54,47.56 0.53,-16.74 0.54,-5.25 0.53,-36.12 0.54,5.12 0.53,13.74 0.53,-5.13 0.54,8.89 0.53,19.67 0.54,-5.76 0.53,1.55 0.54,-14.12 0.53,-7.92 0.54,27.29 0.53,-25.55 0.54,47.68 0.53,-32.4 0.54,-14.93 0.53,9.83 0.53,43.34 0.54,-58.28 0.53,24.84 0.54,-26.99 0.53,44.85 0.54,-37.18 0.53,-10.43 0.54,26.27 0.53,26.36 0.54,-42.2 0.53,10.23 0.54,-11.54 0.53,18.27 0.54,-34.66 0.53,5.87 0.53,-5.96 0.54,23.25 0.53,33.57 0.54,-48.35 0.53,41.71 0.54,-39.36 0.53,4.13 0.54,-0.66 0.53,25.66 0.54,-11.03 0.53,-30.81 0.54,24.99 0.53,-23.56 0.53,35.01 0.54,-0.13 0.53,-5.89 0.54,-25.18 0.53,29.81 0.54,-6.8 0.53,-3.85 0.54,3.87 0.53,2.13 0.54,-22.11 0.53,18.29 0.54,-18.63 0.53,2.08 0.54,2.69 0.53,67.5 0.53,-42.03 0.54,3.24 0.53,-12.16 0.54,19.95 0.53,-23.42 0.54,-30.52 0.53,41.12 0.54,-17.71 0.53,-4.29 0.54,23.2 0.53,-15.43 0.54,9.84 0.53,-22.97 0.53,8.97 0.54,-14.95 0.53,30.75 0.54,-25.38 0.53,-0.87 0.54,33.61 0.53,-48.32 0.54,31.59 0.53,-12.33 0.54,13.47 0.53,-20.29 0.54,1.55 0.53,-7.52 0.54,31.53 0.53,-30.14 0.53,65.73 0.54,-70.83 0.53,31.57 0.54,-2.18 0.53,21.09 0.54,-33.8 0.53,20.02 0.54,-23.99 0.53,16.65 0.54,-4.58 0.53,60.78 0.54,-58.63 0.53,-20.01 0.54,1.31 0.53,61.68 0.53,-65.66 0.54,-5.57 0.53,34.89 0.54,-15.79 0.53,82.57 0.54,-101.56 0.53,46.65 0.54,-32.58 0.53,56.69 0.54,-7.85 0.53,-23.33 0.54,-0.17 0.53,-31.08 0.53,27.25 0.54,-7.97 0.53,9.83 0.54,-31.11 0.53,44.69 0.54,-2.61 0.53,-1.56 0.54,-19.46 0.53,-23.91 0.54,11.15 0.53,16.03 0.54,-23.97 0.53,61 0.54,-37.98 0.53,26.33 0.53,-18.59 0.54,-21.53 0.53,10.92 0.54,-21.76 0.53,102.22 0.54,-65.69 0.53,-38.5 0.54,48.64 0.53,-42.58 0.54,24.05 0.53,39.3 0.54,-37.19 0.53,-14.45 0.53,35.81 0.54,-17.93 0.53,-24.32 0.54,-9.85 0.53,66.72 0.54,-47.07 0.53,62.72 0.54,-39.42 0.53,-14.94 0.54,-15.39 0.53,29.63 0.54,-27.38 0.53,13.14 0.54,19.85 0.53,45.16 0.53,-67.26 0.54,35.62 0.53,-35.99 0.54,-0.13 0.53,-3.56 0.54,-9.55 0.53,3.58 0.54,8.3 0.53,10.31 0.54,-17.45 0.53,-12.11 0.54,57.53 0.53,-52.32 0.54,15.19 0.53,19.35 0.53,-22.75 0.54,-16.16 0.53,0.42 0.54,48.22 0.53,-45.6 0.54,37.29 0.53,-24.21 0.54,-14.46 0.53,29.4 0.54,-29.98 0.53,20.5 0.54,0.87 0.53,8.31 0.53,-40.56 0.54,41.87 0.53,-16.37 0.54,26.23 0.53,-37.05 0.54,-9.56 0.53,44.65 0.54,-33.47 0.53,-6.65 0.54,5.8 0.53,71.13 0.54,-71.51 0.53,7.58 0.54,-11.97 0.53,21.39 0.53,4.13 0.54,-27.47 0.53,-1.43 0.54,58.22 0.53,-52.6 0.54,15.49 0.53,12.5 0.54,6.47 0.53,-12.57 0.54,-22.67 0.53,9.75 0.54,-10.26 0.53,5.77 0.53,12.34 0.54,10.05 0.53,-7.44 0.54,43.55 0.53,-65.48 0.54,29.37 0.53,-19.41 0.54,3.83 0.53,-10.45 0.54,21.1 0.53,7.19 0.54,-24.32 0.53,-0.77 0.54,49.86 0.53,-33.27 0.53,3.46 0.54,18.83 0.53,-34.08 0.54,1.43 0.53,10.79 0.54,-13.34 0.53,8.83 0.54,-17.17 0.53,21 0.54,-16.1 0.53,-5.25 0.54,34.88 0.53,-24.38 0.54,12.71 0.53,-11.78 0.53,47.34 0.54,-18.59 0.53,-19.48 0.54,50.65 0.53,-56.54 0.54,-0.9 0.53,3.06 0.54,7.96 0.53,-19.52 0.54,30.54 0.53,-36 0.54,19.92 0.53,-17.65 0.53,9.17 0.54,27.69 0.53,-32.89 0.54,28.94 0.53,42.66 0.54,-59.84 0.53,10.72 0.54,55.28 0.53,-36.54 0.54,-40.89 0.53,10.73 0.54,-4.73 0.53,41.24 0.54,-38.41 0.53,-10.62 0.53,68.82 0.54,-35.58 0.53,-44.72 0.54,63.71 0.53,-60.68 0.54,78.02 0.53,-53.51 0.54,-3.45 0.53,18.51 0.54,4.89 0.53,-40.29 0.54,31.72 0.53,18.91 0.53,14.39 0.54,-38.98 0.53,8.47 0.54,-24.63 0.53,17.35 0.54,21.6 0.53,-50.27 0.54,15.75 0.53,-12.47 0.54,32.07 0.53,-25.45 0.54,22.79 0.53,28.15 0.54,-37.83 0.53,-4.74 0.53,-14.33 0.54,45.15 0.53,-37.67 0.54,33.36 0.53,-40.15 0.54,28.15 0.53,-43.13 0.54,30.44 0.53,9.32 0.54,-33.53 0.53,10.71 0.54,22.67 0.53,-1.44 0.53,33.16 0.54,-43.22 0.53,-18.06 0.54,17.89 0.53,-2.8 0.54,3.86 0.53,-0.89 0.54,11.29 0.53,-3.13 0.54,0.8 0.53,-6 0.54,17.23 0.53,-2.86 0.54,-42.52 0.53,40.38 0.53,-23.22 0.54,11.54 0.53,2.18 0.54,-3.55 0.53,25.72 0.54,-37.91 0.53,12.24 0.54,23.81 0.53,-32.5 0.54,27.58 0.53,-20.96 0.54,-2.16 0.53,-2.15 0.54,28.21 0.53,-20.72 0.53,58.88 0.54,-60.12 0.53,4.18 0.54,17.86 0.53,17.16 0.54,-19.34 0.53,3.21 0.54,-36.88 0.53,27.43 0.54,-19.84 0.53,58.58 0.54,-6.33 0.53,-28.79 0.53,-41.54 0.54,1.64 0.53,46.86 0.54,6.87 0.53,-20.94 0.54,-30.66 0.53,28.82 0.54,-25.24 0.53,24.67 0.54,-25.58 0.53,9.63 0.54,0.42 0.53,-4.31 0.54,35.84 0.53,-43.08 0.53,30.28 0.54,-21.34 0.53,0.17 0.54,24.44 0.53,-18.17 0.54,35.42 0.53,-24.6 0.54,-25.31 0.53,19.18 0.54,6.84 0.53,-30.43 0.54,7.27 0.53,14.14 0.53,1.85" /></g></g><g
       id="g210"><g
         clip-path="url(#clipPath216)"
         id="g212"><path
           id="path256"
           style="fill:none;stroke:#4078c0;stroke-width:2.13;stroke-linecap:butt;stroke-linejoin:round;stroke-miterlimit:10;stroke-dasharray:none;stroke-opacity:1"
           d="m 81.7,188.23 0.54,-1.03 0.53,-1.45 0.54,-1.04 0.53,5.81 0.54,-2.32 0.53,-0.37 0.53,-4.26 0.54,-8.55 0.53,-4.81 0.54,4.68 0.53,3.68 0.54,3.7 0.53,-1.65 0.54,-3.48 0.53,-5.69 0.54,-6.75 0.53,-1.4 0.54,-7.93 0.53,-6.81 0.54,-3.38 0.53,-4.32 0.53,-4.53 0.54,4.28 0.53,3.14 0.54,-2.78 0.53,-1.86 0.54,0.52 0.53,3.26 0.54,5.4 0.53,-2.45 0.54,6.58 0.53,-7.35 0.54,0.86 0.53,-11.29 0.53,-1.66 0.54,5.43 0.53,-5.48 0.54,0.02 0.53,0.59 0.54,-3.14 0.53,4.72 0.54,-2.31 0.53,-6.3 0.54,-2.56 0.53,-8.91 0.54,-3.85 0.53,-4.03 0.54,-3.55 0.53,-0.33 0.53,-1.32 0.54,-1.75 0.53,-0.93 0.54,1.03 0.53,-4.31 0.54,1.07 0.53,-0.2 0.54,-0.85 0.53,-0.8 0.54,-0.26 0.53,-2.06 0.54,-0.25 0.53,-3.61 0.54,-3.74 0.53,-0.39 0.53,-0.11 0.54,-3.13 0.53,-1.68 0.54,-4.25 0.53,-3.26 0.54,-0.98 0.53,-2.51 0.54,-2.63 0.53,1.83 0.54,-2.18 0.53,0.01 0.54,-2.02 0.53,0.62 0.53,-1.42 0.54,1.95 0.53,-0.87 0.54,-5.77 0.53,-2.2 0.54,-5.06 0.53,-0.01 0.54,1.54 0.53,-1.87 0.54,-0.37 0.53,2.1 0.54,-1.47 0.53,-0.2 0.54,2 0.53,-1.58 0.53,3.33 0.54,-0.83 0.53,-1.78 0.54,-2.83 0.53,1.32 0.54,2.49 0.53,0.25 0.54,-0.64 0.53,0.05 0.54,-2.15 0.53,0.33 0.54,-3.07 0.53,-1.25 0.53,1.61 0.54,-0.91 0.53,0.45 0.54,-0.5 0.53,0.33 0.54,2.22 0.53,1.33 0.54,2.86 0.53,-0.62 0.54,-0.81 0.53,-2.99 0.54,2.04 0.53,-1.11 0.54,-1.66 0.53,2.11 0.53,0.42 0.54,1.83 0.53,-0.14 0.54,0.99 0.53,-1.35 0.54,1.08 0.53,2.15 0.54,-0.05 0.53,-0.46 0.54,0.78 0.53,2.24 0.54,0.68 0.53,2.55 0.54,1.76 0.53,-3.76 0.53,-5.08 0.54,1.87 0.53,1.46 0.54,-0.37 0.53,-1.22 0.54,0.38 0.53,-1.18 0.54,-0.27 0.53,1.54 0.54,-2.21 0.53,1.75 0.54,-0.04 0.53,-0.44 0.53,0.61 0.54,1.48 0.53,2.01 0.54,2.29 0.53,1.05 0.54,-3.34 0.53,-1.85 0.54,2.78 0.53,1.76 0.54,0.74 0.53,-2 0.54,-0.43 0.53,-1.07 0.54,-1.56 0.53,0.01 0.53,0.63 0.54,1.56 0.53,-2.35 0.54,1.61 0.53,0.77 0.54,-0.74 0.53,-0.12 0.54,0.59 0.53,-2.11 0.54,-1.56 0.53,0.86 0.54,-3.8 0.53,0.86 0.53,5.77 0.54,-1.86 0.53,-1.34 0.54,3.88 0.53,3.36 0.54,-1.79 0.53,-0.33 0.54,-2.27 0.53,-1.35 0.54,0.98 0.53,1.61 0.54,-0.7 0.53,1.72 0.54,-0.08 0.53,-1.1 0.53,1.53 0.54,-0.8 0.53,2.93 0.54,-1.91 0.53,0.48 0.54,-0.37 0.53,0.8 0.54,-2.32 0.53,-0.06 0.54,2.65 0.53,-2.96 0.54,1.83 0.53,-0.88 0.54,-0.25 0.53,-2.39 0.53,3.9 0.54,-0.83 0.53,1.57 0.54,1.83 0.53,-3.36 0.54,-0.61 0.53,1.67 0.54,-1.48 0.53,2.18 0.54,2.49 0.53,2.2 0.54,-1.79 0.53,-1.78 0.53,-5.09 0.54,-1.18 0.53,1.14 0.54,1.65 0.53,2.76 0.54,-0.26 0.53,-1.67 0.54,0.71 0.53,-2.71 0.54,0.09 0.53,-0.97 0.54,1.28 0.53,-1.1 0.54,0.55 0.53,-0.61 0.53,-1.26 0.54,0.45 0.53,5.61 0.54,1.43 0.53,6.13 0.54,2.01 0.53,-1.1 0.54,-2.54 0.53,-1.95 0.54,-3.11 0.53,1.32 0.54,0.39 0.53,-3.9 0.53,2.68 0.54,-2.87 0.53,0.21 0.54,-2.97 0.53,-1.06 0.54,6.08 0.53,-0.52 0.54,-0.3 0.53,-1.51 0.54,0.53 0.53,4.18 0.54,0.6 0.53,-0.49 0.54,2.92 0.53,-0.6 0.53,-5.17 0.54,-0.09 0.53,2 0.54,-0.57 0.53,0.82 0.54,1.74 0.53,2.63 0.54,-3.3 0.53,1.9 0.54,2.18 0.53,2.72 0.54,-0.46 0.53,4.67 0.53,0.8 0.54,1.1 0.53,-0.02 0.54,-1.42 0.53,0.91 0.54,3.83 0.53,-0.7 0.54,-1.32 0.53,-0.75 0.54,0.66 0.53,2.36 0.54,0.77 0.53,-4.22 0.54,-0.26 0.53,-6.11 0.53,-1.58 0.54,1.24 0.53,-3.94 0.54,0.66 0.53,-0.13 0.54,2.58 0.53,0.25 0.54,-1.79 0.53,0.9 0.54,2.28 0.53,0.24 0.54,-1.2 0.53,-0.07 0.54,-1.84 0.53,4.64 0.53,1.18 0.54,-1.58 0.53,0.44 0.54,-3.15 0.53,0.26 0.54,2.65 0.53,-3.44 0.54,0.29 0.53,-2.4 0.54,-0.33 0.53,-1.25 0.54,2.15 0.53,1.99 0.53,3.04 0.54,-2.85 0.53,0.29 0.54,3.33 0.53,-1.21 0.54,0.61 0.53,1.61 0.54,2.12 0.53,-2.44 0.54,-2.07 0.53,5 0.54,-0.06 0.53,-2.06 0.54,-0.82 0.53,2.12 0.53,2.11 0.54,-1.66 0.53,-1.92 0.54,0.43 0.53,-1.57 0.54,-2.35 0.53,-0.85 0.54,2.11 0.53,-1.09 0.54,1.93 0.53,1.16 0.54,-1.89 0.53,0.97 0.53,0.68 0.54,-4.11 0.53,-1.51 0.54,1.23 0.53,-3.38 0.54,-1.31 0.53,-1.87 0.54,2.26 0.53,0.12 0.54,-6.02 0.53,0.13 0.54,0.58 0.53,-0.36 0.54,2.26 0.53,-5 0.53,-1.39 0.54,2.54 0.53,-0.07 0.54,-4.16 0.53,-1.08 0.54,1.21 0.53,-0.03 0.54,-0.66 0.53,-2.41 0.54,2.86 0.53,0.23 0.54,-0.93 0.53,-3.88 0.54,1.77 0.53,-0.99 0.53,-4.01 0.54,0.88 0.53,1.83 0.54,-2.57 0.53,-1.54 0.54,-0.24 0.53,1.47 0.54,-0.54 0.53,1.08 0.54,0.77 0.53,1.15 0.54,1.04 0.53,3.66 0.53,3.64 0.54,0.08 0.53,1.07 0.54,2.28 0.53,2.92 0.54,-1.05 0.53,-4.48 0.54,1.43 0.53,2.73 0.54,1.36 0.53,4.38 0.54,0.85 0.53,-4.5 0.54,-0.73 0.53,4.44 0.53,-0.24 0.54,2.15 0.53,-1.6 0.54,-4.57 0.53,-2.15 0.54,-1.73 0.53,0.43 0.54,-3.26 0.53,-0.44 0.54,-0.19 0.53,-0.94 0.54,6.96 0.53,-0.65 0.53,1.31 0.54,2.87 0.53,-2.5 0.54,1.79 0.53,0.27 0.54,1.11 0.53,-3.06 0.54,-0.22 0.53,-0.54 0.54,-1.01 0.53,-0.04 0.54,1.12 0.53,1.41 0.54,1.9 0.53,-3.09 0.53,1.39 0.54,-1.57 0.53,-2.33 0.54,-2.18 0.53,-1.5 0.54,-0.69 0.53,2.07 0.54,0.8 0.53,-1.35 0.54,1.56 0.53,1.88 0.54,2.06 0.53,5.06 0.53,0.24 0.54,1.55 0.53,3.8 0.54,3.03 0.53,-3.02 0.54,0.57 0.53,-1.65 0.54,0.74 0.53,4.01 0.54,-0.71 0.53,-2.8 0.54,-3.43 0.53,-3.93 0.54,-0.46 0.53,-1.03 0.53,-2.53 0.54,0.59 0.53,-0.08 0.54,0.31 0.53,3.54 0.54,-0.73 0.53,-0.19 0.54,-0.21 0.53,-1.93 0.54,0.34 0.53,-0.17 0.54,-3.77 0.53,-0.28 0.54,0.09 0.53,-1.35 0.53,0.17 0.54,-0.67 0.53,3.08 0.54,-0.51 0.53,2.48 0.54,0.1 0.53,3.81 0.54,-5.61 0.53,-0.71 0.54,0.5 0.53,1.63 0.54,-2.54 0.53,2.38 0.53,0.92 0.54,0.46 0.53,1.49 0.54,2.21 0.53,-4.69 0.54,-1.48 0.53,-0.02 0.54,0.2 0.53,-1.08 0.54,0.11 0.53,-1.34 0.54,2.27 0.53,0.37 0.54,0.96 0.53,0.74 0.53,-3.23 0.54,-2.2 0.53,2.52 0.54,-0.07 0.53,-2.27 0.54,2.51 0.53,0.88 0.54,-1.1 0.53,0.41 0.54,-0.96 0.53,-0.53 0.54,1.85 0.53,2.01 0.53,-0.97 0.54,2.93 0.53,4.1 0.54,1.56 0.53,-0.09 0.54,-0.66 0.53,-1.6 0.54,1.49 0.53,0.2 0.54,-0.42 0.53,-1.18 0.54,-1.02 0.53,2.01 0.54,-3.93 0.53,-0.21 0.53,3.15 0.54,1.66 0.53,-1.77 0.54,2.07 0.53,-3.14 0.54,0.43 0.53,-1.06 0.54,0.98 0.53,5.54 0.54,0.55 0.53,1.21 0.54,-5.24 0.53,-1.92 0.54,-1.42 0.53,2.83 0.53,-1.19 0.54,-0.36 0.53,0.73 0.54,2.11 0.53,-0.76 0.54,0.44 0.53,-1.54 0.54,3.85 0.53,1.78 0.54,-3.65 0.53,1.76 0.54,0.61 0.53,-0.29 0.53,2.8 0.54,0.22 0.53,4.81 0.54,2.61 0.53,1.53 0.54,-7.14 0.53,-2.36 0.54,3.4 0.53,-1.11 0.54,-5.12 0.53,-1.71 0.54,0.38 0.53,-1.99 0.54,0.81 0.53,2.49 0.53,-0.96 0.54,4.8 0.53,2.14 0.54,-4.8 0.53,0.04 0.54,0.02 0.53,5.83 0.54,-2.79 0.53,0.49 0.54,-1.55 0.53,-2.32 0.54,-1.11 0.53,-1.62 0.53,-1.92 0.54,0.28 0.53,0.01 0.54,1.79 0.53,-2.35 0.54,2.4 0.53,1.31 0.54,-4.72 0.53,-1.38 0.54,0.04 0.53,1.29 0.54,0.66 0.53,0.91 0.54,-5 0.53,-4.43 0.53,-1.09 0.54,1.34 0.53,2.11 0.54,0.88 0.53,4.82 0.54,3.3 0.53,0.76 0.54,-0.73 0.53,-0.11 0.54,1.03 0.53,-0.87 0.54,0.36 0.53,1.69 0.54,-1.79 0.53,0.03 0.53,1.57 0.54,-0.57 0.53,0.82 0.54,3.5 0.53,0.05 0.54,5.15 0.53,-1.89 0.54,-0.12 0.53,-0.18 0.54,1.51 0.53,-1.76 0.54,-5.69 0.53,1.45 0.53,-1.16 0.54,-2.38 0.53,2.58 0.54,3.14 0.53,-3.15 0.54,4.05 0.53,0.66 0.54,-1.48 0.53,-0.17 0.54,3.47 0.53,-2.9 0.54,-1.61 0.53,0.73 0.54,-0.44 0.53,-1.35 0.53,0.45 0.54,-2.02 0.53,4.02 0.54,-0.24 0.53,0.8 0.54,1.05 0.53,-2.82 0.54,-2.07 0.53,1.65 0.54,-2.25 0.53,-0.98 0.54,-2.65 0.53,0.24 0.53,-1.27 0.54,-1.87 0.53,1.69 0.54,1.61 0.53,3.46 0.54,0.38 0.53,0.29 0.54,0.95 0.53,-3.08 0.54,1.45 0.53,-2.34 0.54,0.59 0.53,-0.91 0.54,1.74 0.53,-1.33 0.53,-4.84 0.54,-0.47 0.53,-0.58 0.54,0.76 0.53,-3.39 0.54,0.43 0.53,5.64 0.54,0.75 0.53,-0.98 0.54,4.17 0.53,2.62 0.54,-0.23 0.53,0.35 0.53,1.1 0.54,-3.9 0.53,-0.41 0.54,1.22 0.53,2.1 0.54,1.59 0.53,-0.36 0.54,1.55 0.53,2.84 0.54,4.51 0.53,-1.8 0.54,-1.93 0.53,-3.36 0.54,-0.79 0.53,0.75 0.53,-3.72 0.54,1.53 0.53,-2.84 0.54,1.91 0.53,-2.54 0.54,-3.61 0.53,0.81 0.54,1.84 0.53,1.47 0.54,-0.15 0.53,-3.51 0.54,2.92 0.53,-2.54 0.54,-0.66 0.53,0.18 0.53,0.33 0.54,-1.51 0.53,-1.28 0.54,-1.81 0.53,0.54 0.54,-0.84 0.53,-0.44 0.54,1.54 0.53,-2.25 0.54,2.56 0.53,1.97 0.54,1.49 0.53,2.43 0.53,-2.95 0.54,-3.85 0.53,2.28 0.54,-5.33 0.53,2.99 0.54,2.16 0.53,1.55 0.54,-3.04 0.53,1.5 0.54,-0.51 0.53,-1.9 0.54,2.46 0.53,3.04 0.54,-0.56 0.53,-3.26 0.53,2.97 0.54,4.79 0.53,2.58 0.54,-2.55 0.53,-1.73 0.54,0.88 0.53,1.52 0.54,0.37 0.53,-3.99 0.54,2.85 0.53,3.99 0.54,-1.45 0.53,-0.46 0.53,1.2 0.54,1.16 0.53,-3.87 0.54,-2.32 0.53,0.34 0.54,-0.69 0.53,1.7 0.54,3.04 0.53,-0.72 0.54,-1.32 0.53,2.65 0.54,-1.47 0.53,1.41 0.54,-2.52 0.53,1.1 0.53,-3.35 0.54,-1.64 0.53,0.67 0.54,-0.91 0.53,-1 0.54,3.39 0.53,-1.14 0.54,-1.01 0.53,-0.82 0.54,6.41 0.53,0.16 0.54,-2.08 0.53,4.55 0.54,-3.65 0.53,1.41 0.53,2.42 0.54,-3.25 0.53,-0.47 0.54,0.82 0.53,-2.16 0.54,0.48 0.53,-0.34 0.54,-5.24 0.53,-0.14 0.54,-3.5 0.53,-3.43 0.54,-0.85 0.53,-3.53 0.53,-1.95 0.54,0.86 0.53,0.53 0.54,0.03 0.53,3.15 0.54,2.5 0.53,1.69 0.54,-0.63 0.53,-2.39 0.54,-0.27 0.53,3.48 0.54,4.92 0.53,0.39 0.54,-3.02 0.53,1.99 0.53,-0.06 0.54,0.84 0.53,0.25 0.54,2.13 0.53,2.05 0.54,-0.93 0.53,-0.64 0.54,2.79 0.53,-4.21 0.54,1.91 0.53,-2.93 0.54,1.38 0.53,4.02 0.53,-2.12 0.54,-0.89 0.53,-0.1 0.54,0.82 0.53,0.72 0.54,-0.14 0.53,-0.58 0.54,-4.47 0.53,-0.95 0.54,0.41 0.53,-1.92 0.54,3.09 0.53,-3.38 0.54,-1.52 0.53,0.96 0.53,-1.43 0.54,0.12 0.53,0.35 0.54,2.26 0.53,3.21 0.54,2.97 0.53,5.12 0.54,1.67 0.53,-1.68 0.54,-4.48 0.53,-2.23 0.54,-3.59 0.53,-2.56 0.54,2.18 0.53,0.54 0.53,-2.79 0.54,-3.75 0.53,-1.75 0.54,0.17 0.53,1.63 0.54,-0.48 0.53,-7.25 0.54,3.6 0.53,-0.05 0.54,-0.67 0.53,-0.59 0.54,-1.02 0.53,-2.92 0.53,-0.77 0.54,-1.62 0.53,1.02 0.54,0.87 0.53,0.28 0.54,-0.88 0.53,1.65 0.54,0.44 0.53,1.89 0.54,-0.08 0.53,1.5 0.54,-0.56 0.53,-1.27 0.54,-3.3 0.53,7.02 0.53,2.13 0.54,-1.06 0.53,4.23 0.54,4.5 0.53,-3.99 0.54,-0.25 0.53,-1.73 0.54,-0.09 0.53,2.72 0.54,-3.01 0.53,2.06 0.54,1.39 0.53,-1.81 0.53,-0.95 0.54,-1.5 0.53,-1.02 0.54,-0.38 0.53,3.99 0.54,-0.18 0.53,-1.27 0.54,3.09 0.53,0.34 0.54,-2.39 0.53,2.91 0.54,-7.92 0.53,-3.41 0.54,-0.7 0.53,-1 0.53,1.5 0.54,1.77 0.53,-3.36 0.54,-0.89 0.53,2.48 0.54,-0.48 0.53,-0.58 0.54,-0.25 0.53,3.86 0.54,0.25 0.53,6.79 0.54,0.94 0.53,-0.61 0.53,0.81 0.54,0.87 0.53,-4.43 0.54,-2.89 0.53,1.25 0.54,-2.25 0.53,-0.28 0.54,-1.12 0.53,-1.44 0.54,-1.15 0.53,1.04 0.54,3.6 0.53,-2.69 0.54,2.84 0.53,-2.58 0.53,1.86 0.54,0.63 0.53,-1.05 0.54,1.41 0.53,2.47 0.54,-3.93 0.53,-4.01 0.54,0.49 0.53,-0.21 0.54,-0.83 0.53,2.05 0.54,2.1 0.53,-0.91 0.54,0.52 0.53,-0.88 0.53,1.92 0.54,-0.97 0.53,0.65 0.54,-1.31 0.53,1.9 0.54,4.28 0.53,0.95 0.54,0.18 0.53,1 0.54,4.15 0.53,-5.1 0.54,1.48 0.53,0.53 0.53,-1.51 0.54,2.05 0.53,1.06 0.54,3.12 0.53,-2.2 0.54,-4.04 0.53,-0.71 0.54,1.8 0.53,2.62 0.54,0.95 0.53,2.21 0.54,-1.49 0.53,1.32 0.54,4.7 0.53,-2.63 0.53,-0.82 0.54,3.47 0.53,0.67 0.54,4.58 0.53,-3.85 0.54,-0.13 0.53,1.32 0.54,0.83 0.53,-1.56 0.54,-1.48 0.53,-1.01 0.54,-1.06 0.53,-1.11 0.53,3.59" /></g></g></g></svg>
